# xmcd
#
# Track frame offsets:
#	150
#	6644
#	16500
#	26490
#	33581
#	43654
#	50685
#	59533
#	70804
#	74567
#	80943
#	97139
#	107348
#	121187
#
# Disc length: 1964 seconds
#
# Revision: 0
# Processed by: cddbd v1.5.2PL0 Copyright (c) Steve Scherf et al.
# Submitted via: EasyCDDAExtractor 12.0.7.1
#
DISCID=c307aa0e
DTITLE=Владимир Высоцкий - Не кричи нежных слов, не кричи
DYEAR=2012
DGENRE=Chanson
TTITLE0=Большой Каретный
TTITLE1=Песня о нейтральной полосе
TTITLE2=Мой друг уехал в Магадан
TTITLE3=Она была в Париже
TTITLE4=Дом хрустальный
TTITLE5=Песенка ни про что, или что случилось в Африке
TTITLE6=Мне каждый вечер зажигают свечи
TTITLE7=Ноль семь
TTITLE8=Старательская
TTITLE9=Про любовь в каменном веке
TTITLE10=Здесь лапы у елей дрожат на весу
TTITLE11=Баллада о двух погибших лебедях
TTITLE12=В младенчестве нас матери пугали
TTITLE13=Райские яблоки
EXTD=
EXTT0=
EXTT1=
EXTT2=
EXTT3=
EXTT4=
EXTT5=
EXTT6=
EXTT7=
EXTT8=
EXTT9=
EXTT10=
EXTT11=
EXTT12=
EXTT13=
PLAYORDER=
